<svg width="101" height="24" viewBox="0 0 101 24" fill="none" xmlns="http://www.w3.org/2000/svg">
<path d="M24.71 23H13.3867V21.8574C13.9141 21.8184 14.5342 21.7256 15.2471 21.5791C15.96 21.4229 16.3164 21.2324 16.3164 21.0078C16.3164 20.9297 16.3066 20.8418 16.2871 20.7441C16.2773 20.6465 16.2383 20.5146 16.1699 20.3486L14.3975 16.042H7.21973C7.05371 16.4424 6.86816 16.9111 6.66309 17.4482C6.46777 17.9854 6.29688 18.4639 6.15039 18.8838C5.96484 19.4307 5.85254 19.8262 5.81348 20.0703C5.78418 20.3145 5.76953 20.4854 5.76953 20.583C5.76953 20.8955 6.00391 21.1641 6.47266 21.3887C6.95117 21.6035 7.74219 21.7598 8.8457 21.8574V23H0.320312V21.8574C0.642578 21.8379 1.00391 21.7891 1.4043 21.7109C1.81445 21.623 2.13672 21.5059 2.37109 21.3594C2.77148 21.125 3.1084 20.8369 3.38184 20.4951C3.66504 20.1533 3.89941 19.748 4.08496 19.2793C5.21777 16.5352 6.35059 13.7861 7.4834 11.0322C8.62598 8.27832 9.88574 5.24121 11.2627 1.9209H14.1924C16.1064 6.62793 17.6055 10.3486 18.6895 13.083C19.7734 15.8174 20.6963 18.083 21.458 19.8799C21.585 20.1729 21.7461 20.4414 21.9414 20.6855C22.1367 20.9199 22.415 21.1445 22.7764 21.3594C23.0498 21.5156 23.3672 21.6328 23.7285 21.7109C24.0898 21.7891 24.417 21.8379 24.71 21.8574V23ZM13.7969 14.5918L10.7793 7.0625L7.80566 14.5918H13.7969ZM33.6748 23H24.4902V21.9307C24.7441 21.9111 24.9883 21.8867 25.2227 21.8574C25.4668 21.8281 25.6816 21.7793 25.8672 21.7109C26.1797 21.5938 26.3896 21.4277 26.4971 21.2129C26.6143 20.9883 26.6729 20.6953 26.6729 20.334V4.10352C26.6729 3.73242 26.5947 3.39062 26.4385 3.07812C26.292 2.75586 26.0918 2.51172 25.8379 2.3457C25.6426 2.21875 25.3447 2.09668 24.9443 1.97949C24.5537 1.8623 24.207 1.79395 23.9043 1.77441V0.705078L31.2725 0.324219L31.4922 0.558594V20.1436C31.4922 20.5049 31.5557 20.7979 31.6826 21.0225C31.8096 21.2471 32.0146 21.4229 32.2979 21.5498C32.4932 21.6377 32.6982 21.7158 32.9131 21.7842C33.1279 21.8525 33.3818 21.9014 33.6748 21.9307V23ZM44.3535 23H35.0957V21.9307C35.3496 21.9111 35.5986 21.8867 35.8428 21.8574C36.0869 21.8281 36.2969 21.7793 36.4727 21.7109C36.7852 21.5938 37.0049 21.4277 37.1318 21.2129C37.2588 20.9883 37.3223 20.6953 37.3223 20.334V11.8086C37.3223 11.4668 37.2441 11.1689 37.0879 10.915C36.9316 10.6514 36.7363 10.4414 36.502 10.2852C36.3262 10.168 36.0576 10.0557 35.6963 9.94824C35.3447 9.84082 35.0225 9.77246 34.7295 9.74316V8.67383L41.9072 8.29297L42.127 8.5127V20.1436C42.127 20.4854 42.2002 20.7783 42.3467 21.0225C42.4932 21.2568 42.7031 21.4326 42.9766 21.5498C43.1719 21.6377 43.3867 21.7158 43.6211 21.7842C43.8555 21.8525 44.0996 21.9014 44.3535 21.9307V23ZM42.2148 3.01953C42.2148 3.76172 41.9268 4.39648 41.3506 4.92383C40.7842 5.44141 40.1104 5.7002 39.3291 5.7002C38.5381 5.7002 37.8545 5.44141 37.2783 4.92383C36.7119 4.39648 36.4287 3.76172 36.4287 3.01953C36.4287 2.27734 36.7119 1.64258 37.2783 1.11523C37.8545 0.587891 38.5381 0.324219 39.3291 0.324219C40.1201 0.324219 40.7988 0.587891 41.3652 1.11523C41.9316 1.64258 42.2148 2.27734 42.2148 3.01953ZM62.4004 9.53809C61.9609 9.60645 61.5312 9.77246 61.1113 10.0361C60.7012 10.2998 60.3594 10.71 60.0859 11.2666C59.4023 12.6924 58.7285 14.1328 58.0645 15.5879C57.4102 17.0332 56.7656 18.4346 56.1309 19.792C55.9355 20.2021 55.7109 20.7295 55.457 21.374C55.2129 22.0186 55.0078 22.6045 54.8418 23.1318H52.1465C51.0234 20.5244 50.0615 18.3613 49.2607 16.6426C48.4697 14.9238 47.6299 13.0781 46.7412 11.1055C46.5361 10.6465 46.2139 10.2852 45.7744 10.0215C45.3447 9.75781 44.9053 9.59668 44.4561 9.53809V8.46875H53.4795V9.53809C53.1475 9.54785 52.7568 9.62109 52.3076 9.75781C51.8584 9.89453 51.6338 10.0703 51.6338 10.2852C51.6338 10.3438 51.6533 10.4316 51.6924 10.5488C51.7314 10.666 51.7803 10.7979 51.8389 10.9443C52.1514 11.6865 52.6201 12.7559 53.2451 14.1523C53.8799 15.5488 54.5488 17.0186 55.252 18.5615C55.7402 17.4971 56.2041 16.457 56.6436 15.4414C57.0928 14.416 57.6445 13.1123 58.2988 11.5303C58.3867 11.2959 58.4355 11.1055 58.4453 10.959C58.4648 10.8125 58.4746 10.7148 58.4746 10.666C58.4746 10.4902 58.3867 10.3389 58.2109 10.2119C58.0449 10.0752 57.8447 9.95801 57.6104 9.86035C57.3662 9.7627 57.1318 9.68945 56.9072 9.64062C56.6826 9.5918 56.4971 9.55762 56.3506 9.53809V8.46875H62.4004V9.53809ZM71.9805 23H62.7227V21.9307C62.9766 21.9111 63.2256 21.8867 63.4697 21.8574C63.7139 21.8281 63.9238 21.7793 64.0996 21.7109C64.4121 21.5938 64.6318 21.4277 64.7588 21.2129C64.8857 20.9883 64.9492 20.6953 64.9492 20.334V11.8086C64.9492 11.4668 64.8711 11.1689 64.7148 10.915C64.5586 10.6514 64.3633 10.4414 64.1289 10.2852C63.9531 10.168 63.6846 10.0557 63.3232 9.94824C62.9717 9.84082 62.6494 9.77246 62.3564 9.74316V8.67383L69.5342 8.29297L69.7539 8.5127V20.1436C69.7539 20.4854 69.8271 20.7783 69.9736 21.0225C70.1201 21.2568 70.3301 21.4326 70.6035 21.5498C70.7988 21.6377 71.0137 21.7158 71.248 21.7842C71.4824 21.8525 71.7266 21.9014 71.9805 21.9307V23ZM69.8418 3.01953C69.8418 3.76172 69.5537 4.39648 68.9775 4.92383C68.4111 5.44141 67.7373 5.7002 66.9561 5.7002C66.165 5.7002 65.4814 5.44141 64.9053 4.92383C64.3389 4.39648 64.0557 3.76172 64.0557 3.01953C64.0557 2.27734 64.3389 1.64258 64.9053 1.11523C65.4814 0.587891 66.165 0.324219 66.9561 0.324219C67.7471 0.324219 68.4258 0.587891 68.9922 1.11523C69.5586 1.64258 69.8418 2.27734 69.8418 3.01953ZM88.2842 10.1973C89.0068 10.8711 89.5586 11.6768 89.9395 12.6143C90.3203 13.5518 90.5107 14.5674 90.5107 15.6611C90.5107 16.7451 90.3203 17.7705 89.9395 18.7373C89.5684 19.6943 89.0215 20.5146 88.2988 21.1982C87.5273 21.9307 86.6045 22.4922 85.5303 22.8828C84.4658 23.2734 83.2451 23.4688 81.8682 23.4688C80.6768 23.4688 79.5781 23.2979 78.5723 22.9561C77.5762 22.6143 76.6924 22.1016 75.9209 21.418C75.1787 20.7637 74.5928 19.958 74.1631 19.001C73.7334 18.0342 73.5186 16.9551 73.5186 15.7637C73.5186 14.5918 73.7041 13.5518 74.0752 12.6436C74.4561 11.7256 75.0225 10.9102 75.7744 10.1973C76.4971 9.51367 77.3857 8.98633 78.4404 8.61523C79.5049 8.23438 80.6914 8.04395 82 8.04395C83.3672 8.04395 84.5684 8.23438 85.6035 8.61523C86.6484 8.98633 87.542 9.51367 88.2842 10.1973ZM84.5342 20.3486C84.749 19.8018 84.9053 19.1377 85.0029 18.3564C85.1104 17.5752 85.1641 16.667 85.1641 15.6318C85.1641 14.9482 85.1152 14.167 85.0176 13.2881C84.9199 12.4092 84.7734 11.7158 84.5781 11.208C84.3438 10.5928 84.0166 10.1094 83.5967 9.75781C83.1865 9.40625 82.6641 9.23047 82.0293 9.23047C81.3359 9.23047 80.7793 9.4209 80.3594 9.80176C79.9492 10.1826 79.6318 10.6758 79.4072 11.2812C79.2021 11.8379 79.0605 12.4922 78.9824 13.2441C78.9043 13.9863 78.8652 14.7627 78.8652 15.5732C78.8652 16.6377 78.8994 17.5215 78.9678 18.2246C79.0361 18.918 79.2021 19.6162 79.4658 20.3193C79.6904 20.9248 80.0127 21.4033 80.4326 21.7549C80.8525 22.1064 81.3848 22.2822 82.0293 22.2822C82.6152 22.2822 83.1182 22.1211 83.5381 21.7988C83.958 21.4668 84.29 20.9834 84.5342 20.3486ZM100.047 4.52832C100.047 4.92871 99.9736 5.46094 99.8271 6.125C99.6904 6.7793 99.5146 7.55078 99.2998 8.43945C99.0947 9.2793 98.8604 10.3291 98.5967 11.5889C98.333 12.8389 98.0547 14.3867 97.7617 16.2324H96.6338C96.3408 14.3672 96.0625 12.8145 95.7988 11.5742C95.5352 10.334 95.3008 9.29395 95.0957 8.4541C94.9102 7.68262 94.7393 6.93066 94.583 6.19824C94.4268 5.45605 94.3486 4.89941 94.3486 4.52832C94.3486 3.77637 94.627 3.13672 95.1836 2.60938C95.7402 2.07227 96.4092 1.80371 97.1904 1.80371C97.9619 1.80371 98.6309 2.07227 99.1973 2.60938C99.7637 3.13672 100.047 3.77637 100.047 4.52832ZM100.018 20.7148C100.018 21.457 99.7344 22.0967 99.168 22.6338C98.6113 23.1611 97.957 23.4248 97.2051 23.4248C96.4434 23.4248 95.7793 23.1611 95.2129 22.6338C94.6562 22.0967 94.3779 21.457 94.3779 20.7148C94.3779 19.9727 94.6562 19.333 95.2129 18.7959C95.7793 18.249 96.4434 17.9756 97.2051 17.9756C97.957 17.9756 98.6113 18.249 99.168 18.7959C99.7344 19.333 100.018 19.9727 100.018 20.7148Z" fill="black"/>
</svg>
