<svg width="180" height="24" viewBox="0 0 180 24" fill="none" xmlns="http://www.w3.org/2000/svg">
<path d="M19.627 7.41406C19.627 8.58594 19.3828 9.59668 18.8945 10.4463C18.416 11.2861 17.752 11.9697 16.9023 12.4971C16.0234 13.0439 15.0176 13.4395 13.8848 13.6836C12.7617 13.9277 11.4971 14.0498 10.0908 14.0498H8.3916V19.8945C8.3916 20.2461 8.45508 20.5537 8.58203 20.8174C8.71875 21.0713 8.97266 21.2764 9.34375 21.4326C9.53906 21.5107 9.85645 21.5938 10.2959 21.6816C10.7354 21.7695 11.1064 21.8281 11.4092 21.8574V23H0.144531V21.8574C0.427734 21.8281 0.803711 21.7891 1.27246 21.7402C1.74121 21.6816 2.06836 21.6133 2.25391 21.5352C2.63477 21.3789 2.88379 21.1885 3.00098 20.9639C3.12793 20.7393 3.19141 20.4268 3.19141 20.0264V5.36328C3.19141 5.02148 3.13281 4.72852 3.01562 4.48438C2.89844 4.23047 2.64453 4.02051 2.25391 3.85449C1.98047 3.7373 1.61426 3.63477 1.15527 3.54688C0.706055 3.44922 0.369141 3.38574 0.144531 3.35645V2.21387H11.6143C14.2998 2.21387 16.3066 2.64355 17.6348 3.50293C18.9629 4.35254 19.627 5.65625 19.627 7.41406ZM13.9141 8.16113C13.9141 6.59863 13.5967 5.44141 12.9619 4.68945C12.3369 3.92773 11.2188 3.54688 9.60742 3.54688H8.3916V12.6729H9.00684C10.6084 12.6729 11.8242 12.3066 12.6543 11.5742C13.4941 10.832 13.9141 9.69434 13.9141 8.16113ZM36.7656 19.499C36.4238 20.0557 36.0088 20.583 35.5205 21.0811C35.042 21.5693 34.4951 21.9893 33.8799 22.3408C33.2256 22.7119 32.5615 22.9902 31.8877 23.1758C31.2236 23.3711 30.457 23.4688 29.5879 23.4688C28.1426 23.4688 26.8926 23.2637 25.8379 22.8535C24.793 22.4434 23.9287 21.8916 23.2451 21.1982C22.5615 20.5049 22.0488 19.6895 21.707 18.752C21.375 17.8047 21.209 16.7793 21.209 15.6758C21.209 14.6797 21.3896 13.7275 21.751 12.8193C22.1221 11.9014 22.6445 11.0859 23.3184 10.373C23.9824 9.67969 24.8174 9.11816 25.8232 8.68848C26.8389 8.25879 27.9717 8.04395 29.2217 8.04395C30.5889 8.04395 31.7119 8.20996 32.5908 8.54199C33.4697 8.87402 34.1973 9.33301 34.7734 9.91895C35.3301 10.4756 35.7354 11.1348 35.9893 11.8965C36.2432 12.6484 36.3701 13.4395 36.3701 14.2695V15.2217H26.4678C26.4678 17.2236 26.8535 18.7471 27.625 19.792C28.3965 20.8369 29.6221 21.3594 31.3018 21.3594C32.2197 21.3594 33.0449 21.1104 33.7773 20.6123C34.5098 20.1045 35.1348 19.4648 35.6523 18.6934L36.7656 19.499ZM31.1699 13.9326C31.1699 13.3467 31.1406 12.7461 31.082 12.1309C31.0234 11.5156 30.9209 11.0127 30.7744 10.6221C30.6084 10.1631 30.3789 9.81641 30.0859 9.58203C29.8027 9.34766 29.4414 9.23047 29.002 9.23047C28.25 9.23047 27.6494 9.61133 27.2002 10.373C26.751 11.1348 26.5068 12.3408 26.4678 13.9912L31.1699 13.9326ZM52.7764 11.1494C52.7764 11.8916 52.5469 12.5459 52.0879 13.1123C51.6289 13.6689 51.0234 13.9473 50.2715 13.9473C49.5586 13.9473 48.9531 13.7666 48.4551 13.4053C47.9668 13.0439 47.7227 12.5117 47.7227 11.8086C47.7227 11.4668 47.7471 11.2031 47.7959 11.0176C47.8447 10.8223 47.8887 10.6416 47.9277 10.4756C47.4785 10.4951 47.0049 10.6514 46.5068 10.9443C46.0088 11.2373 45.5693 11.6279 45.1885 12.1162V20.1582C45.1885 20.5 45.2422 20.7832 45.3496 21.0078C45.457 21.2324 45.6377 21.4082 45.8916 21.5352C46.1064 21.6426 46.4531 21.7354 46.9316 21.8135C47.4199 21.8818 47.7715 21.9209 47.9863 21.9307V23H38.1865V21.9307C38.4307 21.9111 38.6748 21.8867 38.9189 21.8574C39.1729 21.8184 39.3877 21.7695 39.5635 21.7109C39.876 21.6035 40.0908 21.4375 40.208 21.2129C40.3252 20.9883 40.3838 20.6953 40.3838 20.334V11.8086C40.3838 11.457 40.3008 11.1445 40.1348 10.8711C39.9688 10.5879 39.7686 10.3633 39.5342 10.1973C39.3584 10.0801 39.1338 9.98242 38.8604 9.9043C38.5967 9.82617 38.3037 9.77246 37.9814 9.74316V8.67383L44.9688 8.29297L45.1885 8.5127V10.6367H45.2471C45.9209 9.85547 46.6338 9.24512 47.3857 8.80566C48.1475 8.35645 48.9385 8.13184 49.7588 8.13184C50.667 8.13184 51.3945 8.41504 51.9414 8.98145C52.498 9.53809 52.7764 10.2607 52.7764 11.1494ZM60.584 23.498C59.6367 23.498 58.709 23.3564 57.8008 23.0732C56.9023 22.7998 56.2041 22.5068 55.7061 22.1943L55.2666 23.1904H54.124L53.9336 17.7266H55.0029C55.1494 18.166 55.3936 18.6641 55.7354 19.2207C56.0771 19.7676 56.4678 20.2607 56.9072 20.7002C57.3662 21.1396 57.8887 21.5107 58.4746 21.8135C59.0703 22.1162 59.7051 22.2676 60.3789 22.2676C61.2676 22.2676 61.9268 22.0967 62.3564 21.7549C62.7959 21.4033 63.0156 20.8662 63.0156 20.1436C63.0156 19.7529 62.918 19.4307 62.7227 19.1768C62.5273 18.9229 62.2588 18.7031 61.917 18.5176C61.5361 18.3223 61.1162 18.1562 60.6572 18.0195C60.208 17.8828 59.6514 17.7168 58.9873 17.5215C58.3232 17.3262 57.752 17.1309 57.2734 16.9355C56.8047 16.7305 56.3164 16.4131 55.8086 15.9834C55.3691 15.6025 55.0176 15.1436 54.7539 14.6064C54.4902 14.0693 54.3584 13.4297 54.3584 12.6875C54.3584 11.3105 54.9346 10.1973 56.0869 9.34766C57.249 8.49805 58.7676 8.07324 60.6426 8.07324C61.5312 8.07324 62.3467 8.16602 63.0889 8.35156C63.8408 8.52734 64.4707 8.72266 64.9785 8.9375L65.2861 8.07324H66.3994L66.6338 13.0684H65.5938C65.252 12.0527 64.666 11.1787 63.8359 10.4463C63.0059 9.7041 62.1123 9.33301 61.1553 9.33301C60.4033 9.33301 59.8125 9.48926 59.3828 9.80176C58.9531 10.1143 58.7383 10.5488 58.7383 11.1055C58.7383 11.8477 59.0508 12.3848 59.6758 12.7168C60.3105 13.0488 61.1943 13.3613 62.3271 13.6543C64.0752 14.1035 65.3545 14.7188 66.165 15.5C66.9756 16.2715 67.3809 17.2578 67.3809 18.459C67.3809 20.0605 66.751 21.3008 65.4912 22.1797C64.2412 23.0586 62.6055 23.498 60.584 23.498ZM84.1387 10.1973C84.8613 10.8711 85.4131 11.6768 85.7939 12.6143C86.1748 13.5518 86.3652 14.5674 86.3652 15.6611C86.3652 16.7451 86.1748 17.7705 85.7939 18.7373C85.4229 19.6943 84.876 20.5146 84.1533 21.1982C83.3818 21.9307 82.459 22.4922 81.3848 22.8828C80.3203 23.2734 79.0996 23.4688 77.7227 23.4688C76.5312 23.4688 75.4326 23.2979 74.4268 22.9561C73.4307 22.6143 72.5469 22.1016 71.7754 21.418C71.0332 20.7637 70.4473 19.958 70.0176 19.001C69.5879 18.0342 69.373 16.9551 69.373 15.7637C69.373 14.5918 69.5586 13.5518 69.9297 12.6436C70.3105 11.7256 70.877 10.9102 71.6289 10.1973C72.3516 9.51367 73.2402 8.98633 74.2949 8.61523C75.3594 8.23438 76.5459 8.04395 77.8545 8.04395C79.2217 8.04395 80.4229 8.23438 81.458 8.61523C82.5029 8.98633 83.3965 9.51367 84.1387 10.1973ZM80.3887 20.3486C80.6035 19.8018 80.7598 19.1377 80.8574 18.3564C80.9648 17.5752 81.0186 16.667 81.0186 15.6318C81.0186 14.9482 80.9697 14.167 80.8721 13.2881C80.7744 12.4092 80.6279 11.7158 80.4326 11.208C80.1982 10.5928 79.8711 10.1094 79.4512 9.75781C79.041 9.40625 78.5186 9.23047 77.8838 9.23047C77.1904 9.23047 76.6338 9.4209 76.2139 9.80176C75.8037 10.1826 75.4863 10.6758 75.2617 11.2812C75.0566 11.8379 74.915 12.4922 74.8369 13.2441C74.7588 13.9863 74.7197 14.7627 74.7197 15.5732C74.7197 16.6377 74.7539 17.5215 74.8223 18.2246C74.8906 18.918 75.0566 19.6162 75.3203 20.3193C75.5449 20.9248 75.8672 21.4033 76.2871 21.7549C76.707 22.1064 77.2393 22.2822 77.8838 22.2822C78.4697 22.2822 78.9727 22.1211 79.3926 21.7988C79.8125 21.4668 80.1445 20.9834 80.3887 20.3486ZM107.591 23H98.7725V21.9307C98.958 21.9111 99.1826 21.8867 99.4463 21.8574C99.71 21.8281 99.9102 21.7793 100.047 21.7109C100.252 21.6035 100.398 21.4473 100.486 21.2422C100.574 21.0371 100.618 20.7344 100.618 20.334V13.4785C100.618 12.4824 100.433 11.7354 100.062 11.2373C99.7002 10.7295 99.1631 10.4756 98.4502 10.4756C98.0596 10.4756 97.6934 10.5342 97.3516 10.6514C97.0195 10.7686 96.6924 10.9395 96.3701 11.1641C96.0869 11.3594 95.8574 11.5596 95.6816 11.7646C95.5156 11.9697 95.374 12.1504 95.2568 12.3066V20.1729C95.2568 20.5146 95.3057 20.8027 95.4033 21.0371C95.501 21.2617 95.6621 21.4326 95.8867 21.5498C96.043 21.6377 96.2383 21.7158 96.4727 21.7842C96.707 21.8525 96.9365 21.9014 97.1611 21.9307V23H88.2549V21.9307C88.499 21.9111 88.7432 21.8867 88.9873 21.8574C89.2412 21.8184 89.4561 21.7695 89.6318 21.7109C89.9443 21.6035 90.1592 21.4375 90.2764 21.2129C90.3936 20.9883 90.4521 20.6953 90.4521 20.334V11.8086C90.4521 11.5059 90.374 11.208 90.2178 10.915C90.0615 10.6221 89.8564 10.3828 89.6025 10.1973C89.4268 10.0801 89.2021 9.98242 88.9287 9.9043C88.665 9.82617 88.3721 9.77246 88.0498 9.74316V8.67383L95.0371 8.29297L95.2568 8.5127V10.6367H95.3154C95.5889 10.3926 95.9209 10.0996 96.3115 9.75781C96.7021 9.41602 97.0635 9.1377 97.3955 8.92285C97.7568 8.68848 98.2305 8.48828 98.8164 8.32227C99.4023 8.15625 100.027 8.07324 100.691 8.07324C102.283 8.07324 103.475 8.52734 104.266 9.43555C105.066 10.334 105.467 11.5303 105.467 13.0244V20.2021C105.467 20.5635 105.521 20.8516 105.628 21.0664C105.735 21.2812 105.936 21.4521 106.229 21.5791C106.385 21.6475 106.575 21.7158 106.8 21.7842C107.034 21.8525 107.298 21.9014 107.591 21.9307V23ZM125.711 22.6924C125.281 22.8779 124.773 23.0488 124.188 23.2051C123.602 23.3613 122.981 23.4395 122.327 23.4395C121.126 23.4395 120.242 23.2637 119.676 22.9121C119.109 22.5508 118.724 22.0381 118.519 21.374H118.431C118.099 21.7061 117.776 21.9893 117.464 22.2236C117.161 22.458 116.834 22.6582 116.482 22.8242C116.023 23.0391 115.579 23.1953 115.149 23.293C114.729 23.4004 114.139 23.4541 113.377 23.4541C112.244 23.4541 111.277 23.1221 110.477 22.458C109.676 21.7842 109.275 20.8955 109.275 19.792C109.275 19.1572 109.363 18.6201 109.539 18.1807C109.715 17.7314 109.964 17.3359 110.286 16.9941C110.579 16.6816 110.916 16.4229 111.297 16.2178C111.688 16.0127 112.112 15.8223 112.571 15.6465C113.45 15.3242 114.505 14.9922 115.735 14.6504C116.966 14.2988 117.864 13.9863 118.431 13.7129V12.3066C118.431 12.0625 118.411 11.7402 118.372 11.3398C118.333 10.9395 118.25 10.6025 118.123 10.3291C117.986 10.0166 117.771 9.75293 117.479 9.53809C117.186 9.32324 116.8 9.21582 116.321 9.21582C115.892 9.21582 115.53 9.2793 115.237 9.40625C114.954 9.52344 114.725 9.64551 114.549 9.77246C114.578 9.96777 114.661 10.2656 114.798 10.666C114.935 11.0664 115.003 11.4521 115.003 11.8232C115.003 11.9893 114.959 12.1992 114.871 12.4531C114.783 12.6973 114.656 12.8926 114.49 13.0391C114.266 13.2344 114.012 13.3857 113.729 13.4932C113.455 13.6006 113.03 13.6543 112.454 13.6543C111.634 13.6543 111.014 13.459 110.594 13.0684C110.174 12.668 109.964 12.1504 109.964 11.5156C109.964 10.9688 110.179 10.4805 110.608 10.0508C111.048 9.61133 111.58 9.25 112.205 8.9668C112.82 8.67383 113.528 8.44922 114.329 8.29297C115.13 8.12695 115.872 8.04395 116.556 8.04395C117.503 8.04395 118.372 8.10254 119.163 8.21973C119.954 8.32715 120.667 8.55664 121.302 8.9082C121.907 9.25 122.386 9.74805 122.737 10.4023C123.099 11.0469 123.279 11.8916 123.279 12.9365C123.279 14.04 123.255 15.3486 123.206 16.8623C123.167 18.376 123.147 19.3721 123.147 19.8506C123.147 20.29 123.211 20.6367 123.338 20.8906C123.475 21.1445 123.68 21.335 123.953 21.4619C124.119 21.54 124.378 21.5889 124.729 21.6084C125.091 21.6182 125.418 21.623 125.711 21.623V22.6924ZM118.431 15.0605C117.884 15.2461 117.342 15.4609 116.805 15.7051C116.268 15.9395 115.828 16.1885 115.486 16.4521C115.125 16.7256 114.842 17.0771 114.637 17.5068C114.432 17.9268 114.329 18.4248 114.329 19.001C114.329 19.7627 114.5 20.3145 114.842 20.6562C115.193 20.998 115.623 21.1689 116.131 21.1689C116.668 21.1689 117.107 21.0615 117.449 20.8467C117.801 20.6221 118.108 20.3486 118.372 20.0264L118.431 15.0605ZM135.76 23H126.575V21.9307C126.829 21.9111 127.073 21.8867 127.308 21.8574C127.552 21.8281 127.767 21.7793 127.952 21.7109C128.265 21.5938 128.475 21.4277 128.582 21.2129C128.699 20.9883 128.758 20.6953 128.758 20.334V4.10352C128.758 3.73242 128.68 3.39062 128.523 3.07812C128.377 2.75586 128.177 2.51172 127.923 2.3457C127.728 2.21875 127.43 2.09668 127.029 1.97949C126.639 1.8623 126.292 1.79395 125.989 1.77441V0.705078L133.357 0.324219L133.577 0.558594V20.1436C133.577 20.5049 133.641 20.7979 133.768 21.0225C133.895 21.2471 134.1 21.4229 134.383 21.5498C134.578 21.6377 134.783 21.7158 134.998 21.7842C135.213 21.8525 135.467 21.9014 135.76 21.9307V23ZM146.438 23H137.181V21.9307C137.435 21.9111 137.684 21.8867 137.928 21.8574C138.172 21.8281 138.382 21.7793 138.558 21.7109C138.87 21.5938 139.09 21.4277 139.217 21.2129C139.344 20.9883 139.407 20.6953 139.407 20.334V11.8086C139.407 11.4668 139.329 11.1689 139.173 10.915C139.017 10.6514 138.821 10.4414 138.587 10.2852C138.411 10.168 138.143 10.0557 137.781 9.94824C137.43 9.84082 137.107 9.77246 136.814 9.74316V8.67383L143.992 8.29297L144.212 8.5127V20.1436C144.212 20.4854 144.285 20.7783 144.432 21.0225C144.578 21.2568 144.788 21.4326 145.062 21.5498C145.257 21.6377 145.472 21.7158 145.706 21.7842C145.94 21.8525 146.185 21.9014 146.438 21.9307V23ZM144.3 3.01953C144.3 3.76172 144.012 4.39648 143.436 4.92383C142.869 5.44141 142.195 5.7002 141.414 5.7002C140.623 5.7002 139.939 5.44141 139.363 4.92383C138.797 4.39648 138.514 3.76172 138.514 3.01953C138.514 2.27734 138.797 1.64258 139.363 1.11523C139.939 0.587891 140.623 0.324219 141.414 0.324219C142.205 0.324219 142.884 0.587891 143.45 1.11523C144.017 1.64258 144.3 2.27734 144.3 3.01953ZM161.995 23H147.581V21.9893L155.989 9.80176C154.827 9.80176 153.782 9.81641 152.854 9.8457C151.927 9.875 151.194 9.99219 150.657 10.1973C150.472 10.2656 150.223 10.6221 149.91 11.2666C149.607 11.9014 149.368 12.5654 149.192 13.2588H148.152V8.46875H161.775V9.37695L153.338 21.667C153.572 21.667 153.914 21.6719 154.363 21.6816C154.812 21.6914 155.242 21.6963 155.652 21.6963C156.131 21.6963 156.644 21.6865 157.19 21.667C157.737 21.6377 158.162 21.6035 158.465 21.5645C158.865 21.5156 159.183 21.3789 159.417 21.1543C159.661 20.9297 159.852 20.6611 159.988 20.3486C160.115 20.0654 160.281 19.6406 160.486 19.0742C160.691 18.498 160.848 17.9854 160.955 17.5361H161.995V23ZM179.295 19.499C178.953 20.0557 178.538 20.583 178.05 21.0811C177.571 21.5693 177.024 21.9893 176.409 22.3408C175.755 22.7119 175.091 22.9902 174.417 23.1758C173.753 23.3711 172.986 23.4688 172.117 23.4688C170.672 23.4688 169.422 23.2637 168.367 22.8535C167.322 22.4434 166.458 21.8916 165.774 21.1982C165.091 20.5049 164.578 19.6895 164.236 18.752C163.904 17.8047 163.738 16.7793 163.738 15.6758C163.738 14.6797 163.919 13.7275 164.28 12.8193C164.651 11.9014 165.174 11.0859 165.848 10.373C166.512 9.67969 167.347 9.11816 168.353 8.68848C169.368 8.25879 170.501 8.04395 171.751 8.04395C173.118 8.04395 174.241 8.20996 175.12 8.54199C175.999 8.87402 176.727 9.33301 177.303 9.91895C177.859 10.4756 178.265 11.1348 178.519 11.8965C178.772 12.6484 178.899 13.4395 178.899 14.2695V15.2217H168.997C168.997 17.2236 169.383 18.7471 170.154 19.792C170.926 20.8369 172.151 21.3594 173.831 21.3594C174.749 21.3594 175.574 21.1104 176.307 20.6123C177.039 20.1045 177.664 19.4648 178.182 18.6934L179.295 19.499ZM173.699 13.9326C173.699 13.3467 173.67 12.7461 173.611 12.1309C173.553 11.5156 173.45 11.0127 173.304 10.6221C173.138 10.1631 172.908 9.81641 172.615 9.58203C172.332 9.34766 171.971 9.23047 171.531 9.23047C170.779 9.23047 170.179 9.61133 169.729 10.373C169.28 11.1348 169.036 12.3408 168.997 13.9912L173.699 13.9326Z" fill="black"/>
</svg>
