<svg width="314" height="24" viewBox="0 0 314 24" fill="none" xmlns="http://www.w3.org/2000/svg">
<path d="M35.5811 3.38574C35.2783 3.41504 34.9756 3.4834 34.6729 3.59082C34.3701 3.68848 34.0723 3.81543 33.7793 3.97168C33.3301 4.22559 33.0078 4.50391 32.8125 4.80664C32.627 5.10938 32.4561 5.47559 32.2998 5.90527C31.7627 7.38965 30.9326 9.76758 29.8096 13.0391C28.6963 16.3105 27.5342 19.709 26.3232 23.2344H23.3789L17.8857 7.78027L12.9346 23.2344H9.99023C8.35938 18.4883 7.10938 14.8359 6.24023 12.2773C5.37109 9.70898 4.63867 7.55566 4.04297 5.81738C3.85742 5.29004 3.64746 4.90918 3.41309 4.6748C3.17871 4.43066 2.87598 4.18652 2.50488 3.94238C2.24121 3.7666 1.95801 3.63965 1.65527 3.56152C1.3623 3.47363 1.02051 3.40527 0.629883 3.35645V2.21387H11.7188V3.32715C11.0645 3.40527 10.5762 3.4834 10.2539 3.56152C9.93164 3.62988 9.67773 3.70313 9.49219 3.78125C9.31641 3.85937 9.20898 3.94238 9.16992 4.03027C9.13086 4.11816 9.11133 4.19629 9.11133 4.26465C9.11133 4.40137 9.12598 4.5332 9.15527 4.66016C9.19434 4.78711 9.2334 4.93359 9.27246 5.09961C9.50684 5.86133 9.98047 7.30664 10.6934 9.43555C11.4062 11.5645 12.2852 14.2061 13.3301 17.3604L18.0615 2.21387H21.167L26.6602 17.8291C27.4707 15.3193 28.1152 13.2686 28.5938 11.6768C29.082 10.085 29.4922 8.72266 29.8242 7.58984C30.0195 6.89648 30.1758 6.31543 30.293 5.84668C30.4102 5.37793 30.4688 4.97266 30.4688 4.63086C30.4688 4.42578 30.3711 4.25 30.1758 4.10352C29.9902 3.95703 29.7363 3.83008 29.4141 3.72266C29.1406 3.63477 28.7842 3.56641 28.3447 3.51758C27.915 3.45898 27.5391 3.41504 27.2168 3.38574V2.21387H35.5811V3.38574ZM50.4785 11.1494C50.4785 11.8916 50.249 12.5459 49.79 13.1123C49.3311 13.6689 48.7256 13.9473 47.9736 13.9473C47.2607 13.9473 46.6553 13.7666 46.1572 13.4053C45.6689 13.0439 45.4248 12.5117 45.4248 11.8086C45.4248 11.4668 45.4492 11.2031 45.498 11.0176C45.5469 10.8223 45.5908 10.6416 45.6299 10.4756C45.1807 10.4951 44.707 10.6514 44.209 10.9443C43.7109 11.2373 43.2715 11.6279 42.8906 12.1162V20.1582C42.8906 20.5 42.9443 20.7832 43.0518 21.0078C43.1592 21.2324 43.3398 21.4082 43.5938 21.5352C43.8086 21.6426 44.1553 21.7354 44.6338 21.8135C45.1221 21.8818 45.4736 21.9209 45.6885 21.9307V23H35.8887V21.9307C36.1328 21.9111 36.377 21.8867 36.6211 21.8574C36.875 21.8184 37.0898 21.7695 37.2656 21.7109C37.5781 21.6035 37.793 21.4375 37.9102 21.2129C38.0273 20.9883 38.0859 20.6953 38.0859 20.334V11.8086C38.0859 11.457 38.0029 11.1445 37.8369 10.8711C37.6709 10.5879 37.4707 10.3633 37.2363 10.1973C37.0605 10.0801 36.8359 9.98242 36.5625 9.9043C36.2988 9.82617 36.0059 9.77246 35.6836 9.74316V8.67383L42.6709 8.29297L42.8906 8.5127V10.6367H42.9492C43.623 9.85547 44.3359 9.24512 45.0879 8.80566C45.8496 8.35645 46.6406 8.13184 47.4609 8.13184C48.3691 8.13184 49.0967 8.41504 49.6436 8.98145C50.2002 9.53809 50.4785 10.2607 50.4785 11.1494ZM60.7617 23H51.5039V21.9307C51.7578 21.9111 52.0068 21.8867 52.251 21.8574C52.4951 21.8281 52.7051 21.7793 52.8809 21.7109C53.1934 21.5938 53.4131 21.4277 53.54 21.2129C53.667 20.9883 53.7305 20.6953 53.7305 20.334V11.8086C53.7305 11.4668 53.6523 11.1689 53.4961 10.915C53.3398 10.6514 53.1445 10.4414 52.9102 10.2852C52.7344 10.168 52.4658 10.0557 52.1045 9.94824C51.7529 9.84082 51.4307 9.77246 51.1377 9.74316V8.67383L58.3154 8.29297L58.5352 8.5127V20.1436C58.5352 20.4854 58.6084 20.7783 58.7549 21.0225C58.9014 21.2568 59.1113 21.4326 59.3848 21.5498C59.5801 21.6377 59.7949 21.7158 60.0293 21.7842C60.2637 21.8525 60.5078 21.9014 60.7617 21.9307V23ZM58.623 3.01953C58.623 3.76172 58.335 4.39648 57.7588 4.92383C57.1924 5.44141 56.5186 5.7002 55.7373 5.7002C54.9463 5.7002 54.2627 5.44141 53.6865 4.92383C53.1201 4.39648 52.8369 3.76172 52.8369 3.01953C52.8369 2.27734 53.1201 1.64258 53.6865 1.11523C54.2627 0.587891 54.9463 0.324219 55.7373 0.324219C56.5283 0.324219 57.207 0.587891 57.7734 1.11523C58.3398 1.64258 58.623 2.27734 58.623 3.01953ZM73.0078 22.3262C72.3828 22.5996 71.7139 22.8438 71.001 23.0586C70.2881 23.2832 69.4189 23.3955 68.3936 23.3955C66.8701 23.3955 65.7373 23.0244 64.9951 22.2822C64.2627 21.54 63.8965 20.4805 63.8965 19.1035V10.1094H61.2598V8.52734H63.9551V4.08887H68.7158V8.52734H72.8174V10.1094H68.7451V18.1367C68.7451 19.2793 68.9014 20.0898 69.2139 20.5684C69.5361 21.0469 70.1074 21.2861 70.9277 21.2861C71.1914 21.2861 71.5576 21.2666 72.0264 21.2275C72.4951 21.1885 72.8223 21.1445 73.0078 21.0957V22.3262ZM89.7803 19.499C89.4385 20.0557 89.0234 20.583 88.5352 21.0811C88.0566 21.5693 87.5098 21.9893 86.8945 22.3408C86.2402 22.7119 85.5762 22.9902 84.9023 23.1758C84.2383 23.3711 83.4717 23.4688 82.6025 23.4688C81.1572 23.4688 79.9072 23.2637 78.8525 22.8535C77.8076 22.4434 76.9434 21.8916 76.2598 21.1982C75.5762 20.5049 75.0635 19.6895 74.7217 18.752C74.3896 17.8047 74.2236 16.7793 74.2236 15.6758C74.2236 14.6797 74.4043 13.7275 74.7656 12.8193C75.1367 11.9014 75.6592 11.0859 76.333 10.373C76.9971 9.67969 77.832 9.11816 78.8379 8.68848C79.8535 8.25879 80.9863 8.04395 82.2363 8.04395C83.6035 8.04395 84.7266 8.20996 85.6055 8.54199C86.4844 8.87402 87.2119 9.33301 87.7881 9.91895C88.3447 10.4756 88.75 11.1348 89.0039 11.8965C89.2578 12.6484 89.3848 13.4395 89.3848 14.2695V15.2217H79.4824C79.4824 17.2236 79.8682 18.7471 80.6396 19.792C81.4111 20.8369 82.6367 21.3594 84.3164 21.3594C85.2344 21.3594 86.0596 21.1104 86.792 20.6123C87.5244 20.1045 88.1494 19.4648 88.667 18.6934L89.7803 19.499ZM84.1846 13.9326C84.1846 13.3467 84.1553 12.7461 84.0967 12.1309C84.0381 11.5156 83.9355 11.0127 83.7891 10.6221C83.623 10.1631 83.3936 9.81641 83.1006 9.58203C82.8174 9.34766 82.4561 9.23047 82.0166 9.23047C81.2646 9.23047 80.6641 9.61133 80.2148 10.373C79.7656 11.1348 79.5215 12.3408 79.4824 13.9912L84.1846 13.9326ZM122.08 23H113.467C113.232 22.7363 112.93 22.3945 112.559 21.9746C112.188 21.5449 111.87 21.1641 111.606 20.832C110.571 21.7891 109.536 22.4775 108.501 22.8975C107.476 23.3076 106.382 23.5127 105.22 23.5127C103.394 23.5127 101.895 23.0195 100.723 22.0332C99.5605 21.0469 98.9795 19.7627 98.9795 18.1807C98.9795 17.3896 99.082 16.7109 99.2871 16.1445C99.502 15.5781 99.8438 15.0117 100.312 14.4453C100.762 13.8984 101.318 13.4102 101.982 12.9805C102.646 12.541 103.394 12.1309 104.224 11.75C103.345 10.6367 102.729 9.68945 102.378 8.9082C102.036 8.12695 101.865 7.32617 101.865 6.50586C101.865 5.09961 102.451 3.94238 103.623 3.03418C104.795 2.11621 106.196 1.65723 107.827 1.65723C109.351 1.65723 110.586 2.01855 111.533 2.74121C112.48 3.46387 112.954 4.4209 112.954 5.6123C112.954 6.64746 112.671 7.5752 112.104 8.39551C111.538 9.20605 110.596 10.002 109.277 10.7832C110.342 12.1504 111.162 13.1807 111.738 13.874C112.324 14.5576 113.101 15.4609 114.067 16.584C114.683 15.6758 115.142 14.8408 115.444 14.0791C115.757 13.3174 115.913 12.6777 115.913 12.1602C115.913 11.8672 115.693 11.6328 115.254 11.457C114.824 11.2715 114.214 11.1006 113.423 10.9443V9.83105H121.611V10.9443C120.723 11.0225 120.063 11.1299 119.634 11.2666C119.214 11.4033 118.799 11.6816 118.389 12.1016C118.213 12.2773 117.993 12.5898 117.729 13.0391C117.476 13.4785 117.231 13.9033 116.997 14.3135C116.714 14.8115 116.411 15.334 116.089 15.8809C115.767 16.4277 115.376 16.999 114.917 17.5947C115.815 18.6494 116.553 19.4404 117.129 19.9678C117.715 20.4854 118.193 20.8418 118.564 21.0371C118.984 21.2617 119.517 21.4424 120.161 21.5791C120.806 21.7061 121.445 21.7891 122.08 21.8281V23ZM110.728 5.83203C110.728 4.97266 110.518 4.29883 110.098 3.81055C109.688 3.3125 109.15 3.06348 108.486 3.06348C107.852 3.06348 107.339 3.26855 106.948 3.67871C106.558 4.0791 106.362 4.60645 106.362 5.26074C106.362 5.82715 106.543 6.47168 106.904 7.19434C107.266 7.90723 107.822 8.77637 108.574 9.80176C109.316 9.28418 109.858 8.68359 110.2 8C110.552 7.30664 110.728 6.58398 110.728 5.83203ZM110.83 19.8799C110.01 18.8936 109.053 17.7461 107.959 16.4375C106.875 15.1289 105.864 13.8838 104.927 12.7021C104.409 13.21 104.033 13.8057 103.799 14.4893C103.574 15.1631 103.462 15.8418 103.462 16.5254C103.462 17.8242 103.877 18.8838 104.707 19.7041C105.537 20.5244 106.592 20.9346 107.871 20.9346C108.467 20.9346 108.984 20.8613 109.424 20.7148C109.863 20.5586 110.332 20.2803 110.83 19.8799ZM154.526 3.35645C154.243 3.38574 153.833 3.4541 153.296 3.56152C152.769 3.65918 152.324 3.83496 151.963 4.08887C151.592 4.33301 151.328 4.77246 151.172 5.40723C151.025 6.04199 150.952 6.99414 150.952 8.26367V15.998C150.952 18.2734 150.181 20.1045 148.638 21.4912C147.095 22.8779 145.054 23.5713 142.515 23.5713C139.556 23.5713 137.266 22.9023 135.645 21.5645C134.023 20.2266 133.213 18.3613 133.213 15.9688V5.33398C133.213 4.99219 133.145 4.69922 133.008 4.45508C132.881 4.21094 132.632 3.99121 132.261 3.7959C132.007 3.66895 131.694 3.56641 131.323 3.48828C130.952 3.41016 130.649 3.35645 130.415 3.32715V2.21387H141.313V3.32715C141.001 3.34668 140.684 3.38574 140.361 3.44434C140.039 3.49316 139.712 3.57129 139.38 3.67871C139.009 3.7959 138.76 3.99121 138.633 4.26465C138.506 4.53809 138.442 4.8457 138.442 5.1875V15.6758C138.442 17.7363 138.896 19.2354 139.805 20.1729C140.713 21.1104 142.031 21.5791 143.76 21.5791C145.459 21.5791 146.792 21.0615 147.759 20.0264C148.726 18.9912 149.209 17.4678 149.209 15.4561V8.41016C149.209 7.16016 149.121 6.22754 148.945 5.6123C148.779 4.9873 148.521 4.53809 148.169 4.26465C147.915 4.0498 147.471 3.85449 146.836 3.67871C146.211 3.50293 145.771 3.39551 145.518 3.35645V2.21387H154.526V3.35645ZM174.785 23H165.967V21.9307C166.152 21.9111 166.377 21.8867 166.641 21.8574C166.904 21.8281 167.104 21.7793 167.241 21.7109C167.446 21.6035 167.593 21.4473 167.681 21.2422C167.769 21.0371 167.812 20.7344 167.812 20.334V13.4785C167.812 12.4824 167.627 11.7354 167.256 11.2373C166.895 10.7295 166.357 10.4756 165.645 10.4756C165.254 10.4756 164.888 10.5342 164.546 10.6514C164.214 10.7686 163.887 10.9395 163.564 11.1641C163.281 11.3594 163.052 11.5596 162.876 11.7646C162.71 11.9697 162.568 12.1504 162.451 12.3066V20.1729C162.451 20.5146 162.5 20.8027 162.598 21.0371C162.695 21.2617 162.856 21.4326 163.081 21.5498C163.237 21.6377 163.433 21.7158 163.667 21.7842C163.901 21.8525 164.131 21.9014 164.355 21.9307V23H155.449V21.9307C155.693 21.9111 155.938 21.8867 156.182 21.8574C156.436 21.8184 156.65 21.7695 156.826 21.7109C157.139 21.6035 157.354 21.4375 157.471 21.2129C157.588 20.9883 157.646 20.6953 157.646 20.334V11.8086C157.646 11.5059 157.568 11.208 157.412 10.915C157.256 10.6221 157.051 10.3828 156.797 10.1973C156.621 10.0801 156.396 9.98242 156.123 9.9043C155.859 9.82617 155.566 9.77246 155.244 9.74316V8.67383L162.231 8.29297L162.451 8.5127V10.6367H162.51C162.783 10.3926 163.115 10.0996 163.506 9.75781C163.896 9.41602 164.258 9.1377 164.59 8.92285C164.951 8.68848 165.425 8.48828 166.011 8.32227C166.597 8.15625 167.222 8.07324 167.886 8.07324C169.478 8.07324 170.669 8.52734 171.46 9.43555C172.261 10.334 172.661 11.5303 172.661 13.0244V20.2021C172.661 20.5635 172.715 20.8516 172.822 21.0664C172.93 21.2812 173.13 21.4521 173.423 21.5791C173.579 21.6475 173.77 21.7158 173.994 21.7842C174.229 21.8525 174.492 21.9014 174.785 21.9307V23ZM195.103 22.6924L187.881 23.1172L187.661 22.9121V21.5645L187.559 21.5352C187.08 22.0527 186.431 22.5068 185.61 22.8975C184.8 23.2783 183.979 23.4688 183.149 23.4688C181.177 23.4688 179.551 22.7363 178.271 21.2715C176.992 19.8066 176.353 17.9121 176.353 15.5879C176.353 13.5273 177.065 11.7598 178.491 10.2852C179.927 8.81055 181.66 8.07324 183.691 8.07324C184.492 8.07324 185.244 8.16602 185.947 8.35156C186.65 8.52734 187.212 8.7373 187.632 8.98145V4.19141C187.632 3.83008 187.559 3.49316 187.412 3.18066C187.266 2.8584 187.07 2.60938 186.826 2.43359C186.523 2.21875 186.143 2.06738 185.684 1.97949C185.234 1.88184 184.78 1.81348 184.321 1.77441V0.705078L192.231 0.324219L192.451 0.558594V19.7627C192.451 20.1338 192.51 20.4463 192.627 20.7002C192.754 20.9541 192.954 21.1543 193.228 21.3008C193.433 21.4082 193.73 21.4863 194.121 21.5352C194.521 21.584 194.849 21.6133 195.103 21.623V22.6924ZM187.632 20.085V11.8086C187.563 11.584 187.466 11.335 187.339 11.0615C187.222 10.7881 187.056 10.5293 186.841 10.2852C186.646 10.0801 186.382 9.89941 186.05 9.74316C185.728 9.58691 185.361 9.50879 184.951 9.50879C183.975 9.50879 183.174 10.0605 182.549 11.1641C181.924 12.2676 181.611 13.8252 181.611 15.8369C181.611 16.6279 181.665 17.3408 181.772 17.9756C181.89 18.6006 182.09 19.1719 182.373 19.6895C182.656 20.207 183.018 20.6123 183.457 20.9053C183.906 21.1982 184.443 21.3447 185.068 21.3447C185.664 21.3447 186.157 21.2324 186.548 21.0078C186.938 20.7734 187.3 20.4658 187.632 20.085ZM211.802 19.499C211.46 20.0557 211.045 20.583 210.557 21.0811C210.078 21.5693 209.531 21.9893 208.916 22.3408C208.262 22.7119 207.598 22.9902 206.924 23.1758C206.26 23.3711 205.493 23.4688 204.624 23.4688C203.179 23.4688 201.929 23.2637 200.874 22.8535C199.829 22.4434 198.965 21.8916 198.281 21.1982C197.598 20.5049 197.085 19.6895 196.743 18.752C196.411 17.8047 196.245 16.7793 196.245 15.6758C196.245 14.6797 196.426 13.7275 196.787 12.8193C197.158 11.9014 197.681 11.0859 198.354 10.373C199.019 9.67969 199.854 9.11816 200.859 8.68848C201.875 8.25879 203.008 8.04395 204.258 8.04395C205.625 8.04395 206.748 8.20996 207.627 8.54199C208.506 8.87402 209.233 9.33301 209.81 9.91895C210.366 10.4756 210.771 11.1348 211.025 11.8965C211.279 12.6484 211.406 13.4395 211.406 14.2695V15.2217H201.504C201.504 17.2236 201.89 18.7471 202.661 19.792C203.433 20.8369 204.658 21.3594 206.338 21.3594C207.256 21.3594 208.081 21.1104 208.813 20.6123C209.546 20.1045 210.171 19.4648 210.688 18.6934L211.802 19.499ZM206.206 13.9326C206.206 13.3467 206.177 12.7461 206.118 12.1309C206.06 11.5156 205.957 11.0127 205.811 10.6221C205.645 10.1631 205.415 9.81641 205.122 9.58203C204.839 9.34766 204.478 9.23047 204.038 9.23047C203.286 9.23047 202.686 9.61133 202.236 10.373C201.787 11.1348 201.543 12.3408 201.504 13.9912L206.206 13.9326ZM227.812 11.1494C227.812 11.8916 227.583 12.5459 227.124 13.1123C226.665 13.6689 226.06 13.9473 225.308 13.9473C224.595 13.9473 223.989 13.7666 223.491 13.4053C223.003 13.0439 222.759 12.5117 222.759 11.8086C222.759 11.4668 222.783 11.2031 222.832 11.0176C222.881 10.8223 222.925 10.6416 222.964 10.4756C222.515 10.4951 222.041 10.6514 221.543 10.9443C221.045 11.2373 220.605 11.6279 220.225 12.1162V20.1582C220.225 20.5 220.278 20.7832 220.386 21.0078C220.493 21.2324 220.674 21.4082 220.928 21.5352C221.143 21.6426 221.489 21.7354 221.968 21.8135C222.456 21.8818 222.808 21.9209 223.022 21.9307V23H213.223V21.9307C213.467 21.9111 213.711 21.8867 213.955 21.8574C214.209 21.8184 214.424 21.7695 214.6 21.7109C214.912 21.6035 215.127 21.4375 215.244 21.2129C215.361 20.9883 215.42 20.6953 215.42 20.334V11.8086C215.42 11.457 215.337 11.1445 215.171 10.8711C215.005 10.5879 214.805 10.3633 214.57 10.1973C214.395 10.0801 214.17 9.98242 213.896 9.9043C213.633 9.82617 213.34 9.77246 213.018 9.74316V8.67383L220.005 8.29297L220.225 8.5127V10.6367H220.283C220.957 9.85547 221.67 9.24512 222.422 8.80566C223.184 8.35645 223.975 8.13184 224.795 8.13184C225.703 8.13184 226.431 8.41504 226.978 8.98145C227.534 9.53809 227.812 10.2607 227.812 11.1494ZM235.62 23.498C234.673 23.498 233.745 23.3564 232.837 23.0732C231.938 22.7998 231.24 22.5068 230.742 22.1943L230.303 23.1904H229.16L228.97 17.7266H230.039C230.186 18.166 230.43 18.6641 230.771 19.2207C231.113 19.7676 231.504 20.2607 231.943 20.7002C232.402 21.1396 232.925 21.5107 233.511 21.8135C234.106 22.1162 234.741 22.2676 235.415 22.2676C236.304 22.2676 236.963 22.0967 237.393 21.7549C237.832 21.4033 238.052 20.8662 238.052 20.1436C238.052 19.7529 237.954 19.4307 237.759 19.1768C237.563 18.9229 237.295 18.7031 236.953 18.5176C236.572 18.3223 236.152 18.1562 235.693 18.0195C235.244 17.8828 234.688 17.7168 234.023 17.5215C233.359 17.3262 232.788 17.1309 232.31 16.9355C231.841 16.7305 231.353 16.4131 230.845 15.9834C230.405 15.6025 230.054 15.1436 229.79 14.6064C229.526 14.0693 229.395 13.4297 229.395 12.6875C229.395 11.3105 229.971 10.1973 231.123 9.34766C232.285 8.49805 233.804 8.07324 235.679 8.07324C236.567 8.07324 237.383 8.16602 238.125 8.35156C238.877 8.52734 239.507 8.72266 240.015 8.9375L240.322 8.07324H241.436L241.67 13.0684H240.63C240.288 12.0527 239.702 11.1787 238.872 10.4463C238.042 9.7041 237.148 9.33301 236.191 9.33301C235.439 9.33301 234.849 9.48926 234.419 9.80176C233.989 10.1143 233.774 10.5488 233.774 11.1055C233.774 11.8477 234.087 12.3848 234.712 12.7168C235.347 13.0488 236.23 13.3613 237.363 13.6543C239.111 14.1035 240.391 14.7188 241.201 15.5C242.012 16.2715 242.417 17.2578 242.417 18.459C242.417 20.0605 241.787 21.3008 240.527 22.1797C239.277 23.0586 237.642 23.498 235.62 23.498ZM255.117 22.3262C254.492 22.5996 253.823 22.8438 253.11 23.0586C252.397 23.2832 251.528 23.3955 250.503 23.3955C248.979 23.3955 247.847 23.0244 247.104 22.2822C246.372 21.54 246.006 20.4805 246.006 19.1035V10.1094H243.369V8.52734H246.064V4.08887H250.825V8.52734H254.927V10.1094H250.854V18.1367C250.854 19.2793 251.011 20.0898 251.323 20.5684C251.646 21.0469 252.217 21.2861 253.037 21.2861C253.301 21.2861 253.667 21.2666 254.136 21.2275C254.604 21.1885 254.932 21.1445 255.117 21.0957V22.3262ZM272.886 22.6924C272.456 22.8779 271.948 23.0488 271.362 23.2051C270.776 23.3613 270.156 23.4395 269.502 23.4395C268.301 23.4395 267.417 23.2637 266.851 22.9121C266.284 22.5508 265.898 22.0381 265.693 21.374H265.605C265.273 21.7061 264.951 21.9893 264.639 22.2236C264.336 22.458 264.009 22.6582 263.657 22.8242C263.198 23.0391 262.754 23.1953 262.324 23.293C261.904 23.4004 261.313 23.4541 260.552 23.4541C259.419 23.4541 258.452 23.1221 257.651 22.458C256.851 21.7842 256.45 20.8955 256.45 19.792C256.45 19.1572 256.538 18.6201 256.714 18.1807C256.89 17.7314 257.139 17.3359 257.461 16.9941C257.754 16.6816 258.091 16.4229 258.472 16.2178C258.862 16.0127 259.287 15.8223 259.746 15.6465C260.625 15.3242 261.68 14.9922 262.91 14.6504C264.141 14.2988 265.039 13.9863 265.605 13.7129V12.3066C265.605 12.0625 265.586 11.7402 265.547 11.3398C265.508 10.9395 265.425 10.6025 265.298 10.3291C265.161 10.0166 264.946 9.75293 264.653 9.53809C264.36 9.32324 263.975 9.21582 263.496 9.21582C263.066 9.21582 262.705 9.2793 262.412 9.40625C262.129 9.52344 261.899 9.64551 261.724 9.77246C261.753 9.96777 261.836 10.2656 261.973 10.666C262.109 11.0664 262.178 11.4521 262.178 11.8232C262.178 11.9893 262.134 12.1992 262.046 12.4531C261.958 12.6973 261.831 12.8926 261.665 13.0391C261.44 13.2344 261.187 13.3857 260.903 13.4932C260.63 13.6006 260.205 13.6543 259.629 13.6543C258.809 13.6543 258.188 13.459 257.769 13.0684C257.349 12.668 257.139 12.1504 257.139 11.5156C257.139 10.9688 257.354 10.4805 257.783 10.0508C258.223 9.61133 258.755 9.25 259.38 8.9668C259.995 8.67383 260.703 8.44922 261.504 8.29297C262.305 8.12695 263.047 8.04395 263.73 8.04395C264.678 8.04395 265.547 8.10254 266.338 8.21973C267.129 8.32715 267.842 8.55664 268.477 8.9082C269.082 9.25 269.561 9.74805 269.912 10.4023C270.273 11.0469 270.454 11.8916 270.454 12.9365C270.454 14.04 270.43 15.3486 270.381 16.8623C270.342 18.376 270.322 19.3721 270.322 19.8506C270.322 20.29 270.386 20.6367 270.513 20.8906C270.649 21.1445 270.854 21.335 271.128 21.4619C271.294 21.54 271.553 21.5889 271.904 21.6084C272.266 21.6182 272.593 21.623 272.886 21.623V22.6924ZM265.605 15.0605C265.059 15.2461 264.517 15.4609 263.979 15.7051C263.442 15.9395 263.003 16.1885 262.661 16.4521C262.3 16.7256 262.017 17.0771 261.812 17.5068C261.606 17.9268 261.504 18.4248 261.504 19.001C261.504 19.7627 261.675 20.3145 262.017 20.6562C262.368 20.998 262.798 21.1689 263.306 21.1689C263.843 21.1689 264.282 21.0615 264.624 20.8467C264.976 20.6221 265.283 20.3486 265.547 20.0264L265.605 15.0605ZM293.35 23H284.531V21.9307C284.717 21.9111 284.941 21.8867 285.205 21.8574C285.469 21.8281 285.669 21.7793 285.806 21.7109C286.011 21.6035 286.157 21.4473 286.245 21.2422C286.333 21.0371 286.377 20.7344 286.377 20.334V13.4785C286.377 12.4824 286.191 11.7354 285.82 11.2373C285.459 10.7295 284.922 10.4756 284.209 10.4756C283.818 10.4756 283.452 10.5342 283.11 10.6514C282.778 10.7686 282.451 10.9395 282.129 11.1641C281.846 11.3594 281.616 11.5596 281.44 11.7646C281.274 11.9697 281.133 12.1504 281.016 12.3066V20.1729C281.016 20.5146 281.064 20.8027 281.162 21.0371C281.26 21.2617 281.421 21.4326 281.646 21.5498C281.802 21.6377 281.997 21.7158 282.231 21.7842C282.466 21.8525 282.695 21.9014 282.92 21.9307V23H274.014V21.9307C274.258 21.9111 274.502 21.8867 274.746 21.8574C275 21.8184 275.215 21.7695 275.391 21.7109C275.703 21.6035 275.918 21.4375 276.035 21.2129C276.152 20.9883 276.211 20.6953 276.211 20.334V11.8086C276.211 11.5059 276.133 11.208 275.977 10.915C275.82 10.6221 275.615 10.3828 275.361 10.1973C275.186 10.0801 274.961 9.98242 274.688 9.9043C274.424 9.82617 274.131 9.77246 273.809 9.74316V8.67383L280.796 8.29297L281.016 8.5127V10.6367H281.074C281.348 10.3926 281.68 10.0996 282.07 9.75781C282.461 9.41602 282.822 9.1377 283.154 8.92285C283.516 8.68848 283.989 8.48828 284.575 8.32227C285.161 8.15625 285.786 8.07324 286.45 8.07324C288.042 8.07324 289.233 8.52734 290.024 9.43555C290.825 10.334 291.226 11.5303 291.226 13.0244V20.2021C291.226 20.5635 291.279 20.8516 291.387 21.0664C291.494 21.2812 291.694 21.4521 291.987 21.5791C292.144 21.6475 292.334 21.7158 292.559 21.7842C292.793 21.8525 293.057 21.9014 293.35 21.9307V23ZM313.667 22.6924L306.445 23.1172L306.226 22.9121V21.5645L306.123 21.5352C305.645 22.0527 304.995 22.5068 304.175 22.8975C303.364 23.2783 302.544 23.4688 301.714 23.4688C299.741 23.4688 298.115 22.7363 296.836 21.2715C295.557 19.8066 294.917 17.9121 294.917 15.5879C294.917 13.5273 295.63 11.7598 297.056 10.2852C298.491 8.81055 300.225 8.07324 302.256 8.07324C303.057 8.07324 303.809 8.16602 304.512 8.35156C305.215 8.52734 305.776 8.7373 306.196 8.98145V4.19141C306.196 3.83008 306.123 3.49316 305.977 3.18066C305.83 2.8584 305.635 2.60938 305.391 2.43359C305.088 2.21875 304.707 2.06738 304.248 1.97949C303.799 1.88184 303.345 1.81348 302.886 1.77441V0.705078L310.796 0.324219L311.016 0.558594V19.7627C311.016 20.1338 311.074 20.4463 311.191 20.7002C311.318 20.9541 311.519 21.1543 311.792 21.3008C311.997 21.4082 312.295 21.4863 312.686 21.5352C313.086 21.584 313.413 21.6133 313.667 21.623V22.6924ZM306.196 20.085V11.8086C306.128 11.584 306.03 11.335 305.903 11.0615C305.786 10.7881 305.62 10.5293 305.405 10.2852C305.21 10.0801 304.946 9.89941 304.614 9.74316C304.292 9.58691 303.926 9.50879 303.516 9.50879C302.539 9.50879 301.738 10.0605 301.113 11.1641C300.488 12.2676 300.176 13.8252 300.176 15.8369C300.176 16.6279 300.229 17.3408 300.337 17.9756C300.454 18.6006 300.654 19.1719 300.938 19.6895C301.221 20.207 301.582 20.6123 302.021 20.9053C302.471 21.1982 303.008 21.3447 303.633 21.3447C304.229 21.3447 304.722 21.2324 305.112 21.0078C305.503 20.7734 305.864 20.4658 306.196 20.085Z" fill="black"/>
</svg>
